<svg xmlns="http://www.w3.org/2000/svg" xmlns:xlink="http://www.w3.org/1999/xlink" width="234.96" height="250.6" viewBox="0 0 234.96 250.6">
  <defs>
    <clipPath id="clip-LOGO">
      <rect width="234.96" height="250.6"/>
    </clipPath>
  </defs>
  <g id="LOGO" clip-path="url(#clip-LOGO)">
    <g id="B">
      <g id="Group_1" data-name="Group 1">
        <path id="Path_1" data-name="Path 1" d="M166.925,122.392A90.113,90.113,0,0,1,190,130.449a54.481,54.481,0,0,1,15.625,11.963,44.528,44.528,0,0,1,8.789,15.137,53.82,53.82,0,0,1,2.807,17.334,51.445,51.445,0,0,1-2.685,16.357,59.592,59.592,0,0,1-20.02,28.2,66.085,66.085,0,0,1-16.6,9.4q-17.579,6.837-55.42,6.836H17.755v-6.1h8.3a46.327,46.327,0,0,0,10.01-.976,13.751,13.751,0,0,0,7.446-4.395q3.049-3.416,4.639-10.01t1.587-17.822V53.056q0-11.718-1.709-18.31t-4.883-9.888a14.02,14.02,0,0,0-7.568-4.15,49.972,49.972,0,0,0-9.522-.855h-8.3v-6.1h95.7q46.143,0,69.947,15.625t23.8,43.7a47.1,47.1,0,0,1-10.253,29.907Q186.7,116.047,166.925,122.392ZM81.232,113.6a117.322,117.322,0,0,0,13.794,1.831q7.69.614,16.968.611,32.466,0,46.63-11.719t14.161-32.471a42.652,42.652,0,0,0-4.029-18.188,42.078,42.078,0,0,0-11.841-15.015A60.064,60.064,0,0,0,137.506,28.52q-11.6-3.781-26.977-3.784a105.984,105.984,0,0,0-29.3,3.662Zm0,105.957a161.5,161.5,0,0,0,37.353,4.4,86.778,86.778,0,0,0,26.368-3.662A56.89,56.89,0,0,0,164,210.4a41.406,41.406,0,0,0,11.474-14.648,42.172,42.172,0,0,0,3.906-17.945,47.9,47.9,0,0,0-4.15-19.775,42.616,42.616,0,0,0-12.817-16.113q-8.67-6.832-21.729-10.743t-30.64-3.906q-10.252,0-17.334.244a65.442,65.442,0,0,0-11.474,1.221Z"/>
      </g>
    </g>
    <g id="C">
      <g id="Group_2" data-name="Group 2">
        <path id="Path_2" data-name="Path 2" d="M122.34,134.191l9.7,1.714q-2.979,26.882-20.822,26.88-11.6,0-17.283-11.284t-5.683-30.189q0-20.382,6.01-31.253t17.329-10.87q17.514,0,20.543,27.531l-9.793,1.831q-1.581-18.313-10.7-18.314-12.193,0-12.194,31.843,0,29.658,12.194,29.658a7.77,7.77,0,0,0,7.281-4.52Q121.318,142.7,122.34,134.191Z" fill="#030000"/>
      </g>
    </g>
    <g id="C-2" data-name="C">
      <g id="Group_3" data-name="Group 3">
        <path id="Path_3" data-name="Path 3" d="M136.741,134.191l9.7,1.714q-2.98,26.882-20.823,26.88-11.6,0-17.283-11.284t-5.683-30.189q0-20.382,6.01-31.253t17.329-10.87q17.514,0,20.543,27.531l-9.792,1.831q-1.584-18.313-10.7-18.314-12.194,0-12.194,31.843,0,29.658,12.194,29.658a7.772,7.772,0,0,0,7.282-4.52Q135.716,142.7,136.741,134.191Z" fill="#010000"/>
      </g>
    </g>
  </g>
</svg>
